<svg xmlns="http://www.w3.org/2000/svg" width="20" height="22" viewBox="0 0 20 22">
  <g id="그룹_372" data-name="그룹 372" transform="translate(-242 -601)">
    <path id="패스_2528" data-name="패스 2528" d="M252.928,602.5l.007.42.416.065c3.118.491,5.292,2.591,5.292,4.934h0v0h0v7.6a.982.982,0,0,0,.429.8,1.919,1.919,0,0,0,.667.287,3.692,3.692,0,0,0,.569.088c.076.006.139.01.185.011l.054,0h.024v0a.886.886,0,1,1,0,1.769H243.429a.886.886,0,1,1,0-1.769v0h.024l.054,0c.046,0,.109-.005.185-.011a3.693,3.693,0,0,0,.569-.088,1.919,1.919,0,0,0,.667-.287.982.982,0,0,0,.429-.8v-7.614h0c0-2.343,2.174-4.443,5.292-4.934l.416-.065.007-.42a.931.931,0,1,1,1.856,0Z" fill="none" stroke="#707070" stroke-width="1"/>
    <path id="패스_2529" data-name="패스 2529" d="M252,622.5a2.55,2.55,0,0,1-1.457-.385,2.129,2.129,0,0,1-.721-.839,3.149,3.149,0,0,1-.261-.776h4.878a3.149,3.149,0,0,1-.261.776,2.129,2.129,0,0,1-.721.839A2.55,2.55,0,0,1,252,622.5Z" fill="none" stroke="#707070" stroke-width="1"/>
  </g>
</svg>
