<svg xmlns="http://www.w3.org/2000/svg" width="24" height="22.208" viewBox="0 0 24 22.208">
  <g id="그룹_369" data-name="그룹 369" transform="translate(-288 -149)">
    <path id="패스_87" data-name="패스 87" d="M298.063,166.987a2.11,2.11,0,1,0,2.111,2.11A2.113,2.113,0,0,0,298.063,166.987Zm0,3.042a.932.932,0,1,1,.932-.932A.933.933,0,0,1,298.063,170.029Z" fill="#707070"/>
    <path id="패스_88" data-name="패스 88" d="M305.467,166.987a2.11,2.11,0,1,0,2.111,2.11A2.113,2.113,0,0,0,305.467,166.987Zm0,3.042a.932.932,0,1,1,.932-.932A.933.933,0,0,1,305.467,170.029Z" fill="#707070"/>
    <path id="패스_89" data-name="패스 89" d="M311.735,153.248a1.174,1.174,0,0,0-.914-.434H292.466l-.371-1.8a1.175,1.175,0,0,0-.685-.843l-2.586-1.123a.589.589,0,0,0-.469,1.081l2.586,1.123,2.851,13.84a1.184,1.184,0,0,0,1.155.941h14.117a.59.59,0,0,0,0-1.179H294.947l-.347-1.683h14.573a1.182,1.182,0,0,0,1.154-.941l1.649-8A1.177,1.177,0,0,0,311.735,153.248Zm-2.562,8.745H294.357l-1.648-8h18.112Z" fill="#707070"/>
  </g>
</svg>
