<svg xmlns="http://www.w3.org/2000/svg" viewBox="0 0 230.31 84.53"><defs><style>.cls-1{fill:#dc2525;}.cls-2{fill:#fff;}</style></defs><g id="레이어_2" data-name="레이어 2"><g id="레이어_1-2" data-name="레이어 1"><path class="cls-1" d="M142.13,16.69q6,0,9.32,3t3.33,8.42a10.79,10.79,0,0,1-3.33,8.41q-3.33,3-9.32,3H137q-6,0-9.33-3a10.79,10.79,0,0,1-3.33-8.41q0-5.39,3.33-8.42t9.33-3v-.07h5.18Zm-3.84,41.8v2h33.79v7.4H125.64V51.08h33.18v-2H125.64v-7.4h45.77V58.49Zm2.29-28.07a2.32,2.32,0,0,0,1.75-.64,2.77,2.77,0,0,0,0-3.47,2.38,2.38,0,0,0-1.75-.6h-2.09a2.39,2.39,0,0,0-1.71.6,2.67,2.67,0,0,0,0,3.47,2.33,2.33,0,0,0,1.71.64Zm30.83-6.6h5.05v8.55h-5.05v7.4H158.82v-23h12.59Z"/><path class="cls-1" d="M192.48,46.3v9.49h9.29v10.1H180.5V36.21h8.41V27.46H180.5V17.29h20.26v29Zm25.85-29.55h12V67.91h-12V47h-2.09v20.2h-12V16.75h12V37h2.09Z"/><path class="cls-1" d="M102.43,57.17q-.81-1.8-1.65-3.6c-1.09-2.33-2.23-4.08-3.45-6.35a108.81,108.81,0,0,0-8.15-12.85A117.71,117.71,0,0,0,72.63,15.69c-1.87-1.63-3.79-3.16-5.78-4.61a6.49,6.49,0,0,0-.18-3.52,7.5,7.5,0,0,0-2.91-3.71,8.78,8.78,0,0,0-9.14-.11.71.71,0,0,0-.36.47,26.6,26.6,0,0,0-28,0,.72.72,0,0,0-.35-.44,8.78,8.78,0,0,0-9.14.11,7.56,7.56,0,0,0-2.91,3.71,6.31,6.31,0,0,0,.23,4.68l0,0a41.2,41.2,0,0,0,52.73,63.3A80.05,80.05,0,0,0,80,63.38c5,8.44,11,21,11,21,7.24-7,12.43-25,12.3-25.31C103,58.44,102.71,57.81,102.43,57.17Z"/><circle class="cls-2" cx="40.24" cy="26.8" r="26.8"/><ellipse class="cls-1" cx="26.07" cy="29.36" rx="6.87" ry="6.04" transform="translate(-13.16 27.76) rotate(-46.06)"/><circle class="cls-2" cx="29.45" cy="27.72" r="0.92"/><ellipse class="cls-1" cx="53.19" cy="29.36" rx="6.04" ry="6.87" transform="translate(-5.48 45.13) rotate(-43.94)"/><circle class="cls-2" cx="49.81" cy="27.72" r="0.92"/></g></g></svg>