<svg xmlns="http://www.w3.org/2000/svg" viewBox="0 0 459.65 84.53"><defs><style>.cls-1{fill:#dc2525;}.cls-2{fill:#fff;}</style></defs><g id="레이어_2" data-name="레이어 2"><g id="레이어_1-2" data-name="레이어 1"><path class="cls-1" d="M142.13,16.69q6,0,9.32,3t3.33,8.42a10.79,10.79,0,0,1-3.33,8.41q-3.33,3-9.32,3H137q-6,0-9.33-3a10.79,10.79,0,0,1-3.33-8.41q0-5.39,3.33-8.42t9.33-3v-.07h5.18Zm-3.84,41.8v2h33.79v7.4H125.64V51.08h33.18v-2H125.64v-7.4h45.77V58.49Zm2.29-28.07a2.32,2.32,0,0,0,1.75-.64,2.77,2.77,0,0,0,0-3.47,2.38,2.38,0,0,0-1.75-.6h-2.09a2.39,2.39,0,0,0-1.71.6,2.67,2.67,0,0,0,0,3.47,2.33,2.33,0,0,0,1.71.64Zm30.83-6.6h5.05v8.55h-5.05v7.4H158.82v-23h12.59Z"/><path class="cls-1" d="M192.48,46.3v9.49h9.29v10.1H180.5V36.21h8.41V27.46H180.5V17.29h20.26v29Zm25.85-29.55h12V67.91h-12V47h-2.09v20.2h-12V16.75h12V37h2.09Z"/><path class="cls-1" d="M262.62,36.07a28.28,28.28,0,0,1-9.26,8,30.42,30.42,0,0,1-12.28,3.57l-2.69-9.42a17.33,17.33,0,0,0,9.08-3.17,19.73,19.73,0,0,0,6.3-7.57,26.23,26.23,0,0,0,2.52-10.74h12.65a26.23,26.23,0,0,0,2.53,10.74,19.8,19.8,0,0,0,6.29,7.57,17.33,17.33,0,0,0,9.09,3.17l-2.69,9.42a30.47,30.47,0,0,1-12.29-3.57A28.25,28.25,0,0,1,262.62,36.07ZM238.39,65.89V55.79h48.46v10.1Z"/><path class="cls-1" d="M294.93,17.29h28.74v10.1a54.07,54.07,0,0,1-3.53,20.36,30.47,30.47,0,0,1-9.9,13.43,24,24,0,0,1-14.64,4.71l-1.34-10.1a13.33,13.33,0,0,0,7.43-2.55A18.57,18.57,0,0,0,308,45H295.6V34.93h14.95a53.62,53.62,0,0,0,.47-7.54H294.93Zm47.12,18.92h5.05V46.3h-5.05V67.91H329.39V16.75h12.66Z"/><path class="cls-1" d="M351.14,27.46V17.29H381.7V27.46Zm0,10.77h2.22L353,30h11.71l.34,8.28h2.69L368.1,30h11.71l-.33,8.28h2.22V48.32H351.14Zm14,13.12v6.4h33.25V67.84l-45.91.07V51.35ZM398.39,28.8h5.05V38.9h-5.05V51.35H385.74V16.75h12.65Z"/><path class="cls-1" d="M436.09,17.43V27.52h-16V55.79h17.3v10.1H407.48V17.43ZM454.6,36.21h5V46.3h-5V67.91H441.94V16.75H454.6Z"/><path class="cls-1" d="M102.43,57.17q-.81-1.8-1.65-3.6c-1.09-2.33-2.23-4.08-3.45-6.35a108.81,108.81,0,0,0-8.15-12.85A117.71,117.71,0,0,0,72.63,15.69c-1.87-1.63-3.79-3.16-5.78-4.61a6.49,6.49,0,0,0-.18-3.52,7.5,7.5,0,0,0-2.91-3.71,8.78,8.78,0,0,0-9.14-.11.71.71,0,0,0-.36.47,26.6,26.6,0,0,0-28,0,.72.72,0,0,0-.35-.44,8.78,8.78,0,0,0-9.14.11,7.56,7.56,0,0,0-2.91,3.71,6.31,6.31,0,0,0,.23,4.68l0,0a41.2,41.2,0,0,0,52.73,63.3A80.05,80.05,0,0,0,80,63.38c5,8.44,11,21,11,21,7.24-7,12.43-25,12.3-25.31C103,58.44,102.71,57.81,102.43,57.17Z"/><circle class="cls-2" cx="40.24" cy="26.8" r="26.8"/><ellipse class="cls-1" cx="26.07" cy="29.36" rx="6.87" ry="6.04" transform="translate(-13.16 27.76) rotate(-46.06)"/><circle class="cls-2" cx="29.45" cy="27.72" r="0.92"/><ellipse class="cls-1" cx="53.19" cy="29.36" rx="6.04" ry="6.87" transform="translate(-5.48 45.13) rotate(-43.94)"/><circle class="cls-2" cx="49.81" cy="27.72" r="0.92"/></g></g></svg>