<svg xmlns="http://www.w3.org/2000/svg" xmlns:xlink="http://www.w3.org/1999/xlink" width="20" height="20" viewBox="0 0 20 20">
  <defs>
    <clipPath id="clip-path">
      <rect id="사각형_1270" data-name="사각형 1270" width="20" height="20" transform="translate(313 142)" fill="#fff"/>
    </clipPath>
  </defs>
  <g id="그룹_191" data-name="그룹 191" transform="translate(-313 -142)" clip-path="url(#clip-path)">
    <path id="패스_1978" data-name="패스 1978" d="M332.982,156.95a.342.342,0,0,0-.276-.233l-2.636-.369-1.176-2.3a.352.352,0,0,0-.6,0l-1.177,2.3-2.635.369a.339.339,0,0,0-.185.583l1.9,1.785-.448,2.516a.339.339,0,0,0,.487.362l2.36-1.2,2.36,1.2a.332.332,0,0,0,.153.037.34.34,0,0,0,.334-.4l-.448-2.516,1.9-1.785A.342.342,0,0,0,332.982,156.95Zm-2.589,1.766a.34.34,0,0,0-.1.306l.36,2.029-1.907-.966a.335.335,0,0,0-.306,0l-1.908.966.361-2.029a.338.338,0,0,0-.1-.306l-1.517-1.425,2.109-.3a.341.341,0,0,0,.255-.181l.955-1.865.954,1.865a.341.341,0,0,0,.255.181l2.109.3Z" fill="#707070"/>
    <path id="패스_1979" data-name="패스 1979" d="M325.2,152.845h3.05v-3.728H315.376v9.828h6.777V155.9h3.05Zm0-3.05h2.372v2.372H325.2Zm-3.05,0h2.372v2.372h-2.372Zm-3.05,0h2.373v2.372H319.1Zm2.373,5.422H319.1v-2.372h2.373Zm-5.422-5.422h2.372v2.372h-2.372Zm0,3.05h2.372v2.372h-2.372Zm2.372,5.422h-2.372V155.9h2.372Zm3.05,0H319.1V155.9h2.373Zm3.049-3.05h-2.372v-2.372h2.372Z" fill="#707070"/>
    <path id="패스_1980" data-name="패스 1980" d="M321.815,160.638h-8.133V147.422h16.266v5.761a.339.339,0,1,0,.678,0v-9.489a.339.339,0,0,0-.339-.339h-1.694v-1.016a.339.339,0,0,0-.339-.339h-2.372a.338.338,0,0,0-.339.339v1.016h-7.456v-1.016a.338.338,0,0,0-.338-.339h-2.373a.338.338,0,0,0-.338.339v1.016h-1.7a.339.339,0,0,0-.339.339v17.283a.339.339,0,0,0,.339.339h8.472a.339.339,0,0,0,0-.678Zm4.4-17.96h1.7v2.033h-1.7v-2.033Zm-10.505,0h1.7v2.033h-1.7v-2.033Zm-2.033,1.355h1.356v1.017a.338.338,0,0,0,.338.339h2.373a.338.338,0,0,0,.338-.339v-1.017h7.456v1.017a.339.339,0,0,0,.339.339h2.372a.339.339,0,0,0,.339-.339v-1.017h1.355v2.711H313.682Z" fill="#707070"/>
  </g>
</svg>
