<svg xmlns="http://www.w3.org/2000/svg" width="22" height="20" viewBox="0 0 22 20">
  <path id="패스_1989" data-name="패스 1989" d="M334,101.966V94l-11.777,4.128a.75.75,0,0,0-.4-.114h-7.146a.761.761,0,0,0-.761.763v1.445a2.41,2.41,0,0,0,0,4.719v1a.762.762,0,0,0,.761.763h1.97V112.1a1.9,1.9,0,0,0,1.9,1.9h.205a1.9,1.9,0,0,0,1.9-1.9v-5.389h1.173a.755.755,0,0,0,.454-.154L334,110.661v-8.695ZM319.931,112.1a1.179,1.179,0,0,1-1.176,1.18h-.205a1.18,1.18,0,0,1-1.177-1.18v-5.329h2.558Zm-7.209-9.515a1.686,1.686,0,0,1,1.2-1.612v3.225A1.686,1.686,0,0,1,312.722,102.581Zm1.92,3.363v-.967h.01v-4.791h-.01V98.777a.038.038,0,0,1,.039-.038h7.039v7.244h-7.039A.038.038,0,0,1,314.642,105.944Zm7.946-.051V98.777s0-.006,0-.008l10.691-3.748v5.141h0v4h0v5.474Z" transform="translate(-312 -94)" fill="#707070"/>
</svg>
