<svg xmlns="http://www.w3.org/2000/svg" width="22" height="19.999" viewBox="0 0 22 19.999">
  <g id="그룹_369" data-name="그룹 369" transform="translate(-312 -222)">
    <path id="패스_1981" data-name="패스 1981" d="M323.29,230.377a.389.389,0,0,0-.14-.005.946.946,0,0,1-.824-.946.41.41,0,1,0-.819,0,1.789,1.789,0,0,0,1.288,1.729v.42a.41.41,0,1,0,.819,0v-.4A1.787,1.787,0,0,0,325,229.242a1.766,1.766,0,0,0-1.74-1.608.953.953,0,1,1,.93-.953.41.41,0,1,0,.819,0,1.785,1.785,0,0,0-1.391-1.754v-.382a.41.41,0,1,0-.819,0v.407a1.794,1.794,0,0,0-1.273,1.967,1.765,1.765,0,0,0,1.734,1.554.953.953,0,0,1,.034,1.9Z" fill="#707070"/>
    <path id="패스_1982" data-name="패스 1982" d="M317.315,228.086a5.941,5.941,0,1,0,5.94-6.086A6.014,6.014,0,0,0,317.315,228.086Zm5.94-5.247a5.249,5.249,0,1,1-5.121,5.247A5.184,5.184,0,0,1,323.255,222.839Z" fill="#707070"/>
    <path id="패스_1983" data-name="패스 1983" d="M331.215,235.205l-3.209,1.554a2.606,2.606,0,0,0-2.228-1.409l-2.962-.083a3.081,3.081,0,0,1-1.346-.356l-.3-.161a5.2,5.2,0,0,0-4.924.006l.019-.7a.415.415,0,0,0-.4-.431l-3.248-.092a.416.416,0,0,0-.421.408l-.2,7.3a.415.415,0,0,0,.4.431l3.248.092h.012a.414.414,0,0,0,.409-.409l.01-.349.843-.463a1.416,1.416,0,0,1,1.081-.121l5.038,1.449.027.007a5.282,5.282,0,0,0,1.107.117,5.359,5.359,0,0,0,2.283-.511.417.417,0,0,0,.051-.028l7.306-4.843a.425.425,0,0,0,.134-.559A2.044,2.044,0,0,0,331.215,235.205Zm-18.385,5.643.174-6.464,2.429.068-.174,6.465Zm13.257-.109a4.539,4.539,0,0,1-2.84.324l-5.025-1.445a2.214,2.214,0,0,0-1.688.189l-.431.237.115-4.3a4.41,4.41,0,0,1,4.574-.25l.3.16a3.884,3.884,0,0,0,1.7.45l2.962.083a1.81,1.81,0,0,1,1.707,1.467l-4.412-.125a.42.42,0,0,0-.023.84l4.87.137h.011a.414.414,0,0,0,.409-.408,2.761,2.761,0,0,0-.039-.545l3.291-1.593.009-.005a1.228,1.228,0,0,1,1.415.2Z" fill="#707070"/>
  </g>
</svg>
