<svg xmlns="http://www.w3.org/2000/svg" viewBox="0 0 462.45 328.9"><defs><style>.cls-1{fill:#dc2525;}.cls-2{fill:#fff;}</style></defs><g id="레이어_2" data-name="레이어 2"><g id="레이어_1-2" data-name="레이어 1"><path class="cls-1" d="M24.6,258.26q8.26,0,12.86,4.18T42.05,274c0,5-1.53,8.82-4.59,11.61s-7.35,4.17-12.86,4.17H17.45q-8.26,0-12.85-4.17C1.53,282.86,0,279,0,274s1.53-8.81,4.6-11.6,7.34-4.18,12.85-4.18v-.09H24.6Zm-5.29,57.65v2.78h46.6V328.9h-64V305.7H47.62v-2.79H1.86V292.7H65v23.21Zm3.15-38.71a3.17,3.17,0,0,0,2.42-.88,3.34,3.34,0,0,0,.83-2.37,3.29,3.29,0,0,0-.83-2.41,3.27,3.27,0,0,0-2.42-.84H19.59a3.3,3.3,0,0,0-2.37.84,3.16,3.16,0,0,0-.88,2.41,3,3,0,0,0,3.25,3.25ZM65,268.1h7v11.79H65V290.1H47.62V258.36H65Z"/><path class="cls-1" d="M94,299.11V312.2h12.81v13.92H77.51V285.18h11.6V273.12H77.51v-14h27.94v40Zm35.65-40.75H146.2V328.9H129.68V300.13H126.8V328H110.28V258.36H126.8V286.2h2.88Z"/><path class="cls-1" d="M190.75,285A38.83,38.83,0,0,1,178,296,42,42,0,0,1,161.05,301l-3.71-13a23.9,23.9,0,0,0,12.53-4.37,27.14,27.14,0,0,0,8.68-10.44,36.21,36.21,0,0,0,3.48-14.8h17.45a36.05,36.05,0,0,0,3.48,14.8,27.14,27.14,0,0,0,8.68,10.44A23.87,23.87,0,0,0,224.17,288l-3.71,13A41.9,41.9,0,0,1,203.52,296,38.86,38.86,0,0,1,190.75,285Zm-33.41,41.12V312.2h66.83v13.92Z"/><path class="cls-1" d="M235.31,259.1H275V273q0,16.07-4.88,28.08t-13.64,18.52a33,33,0,0,1-20.19,6.5l-1.86-13.92a18.42,18.42,0,0,0,10.26-3.53q5.24-3.53,8.68-11.33H236.24V283.42h20.61a73.6,73.6,0,0,0,.64-10.4H235.31Zm65,26.08h7v13.93h-7V328.9H282.84V258.36h17.45Z"/><path class="cls-1" d="M312.82,273.12v-14H355v14Zm0,14.85h3.06l-.46-11.42h16.15L332,288h3.71l.46-11.42h16.15L351.9,288H355v13.92H312.82Zm19.31,18.1v8.82H378v13.92l-63.31.09V306.07ZM378,275h7V288.9h-7v17.17H360.53V258.36H378Z"/><path class="cls-1" d="M430,259.29v13.92H408v39h23.86v13.92H390.51V259.29Zm25.53,25.89h7v13.93h-7V328.9H438V258.36h17.45Z"/><path class="cls-1" d="M365,150.53q-2.11-4.75-4.33-9.47c-2.88-6.14-5.89-10.75-9.09-16.72A283.38,283.38,0,0,0,330.06,90.5c-12.72-17.34-27.38-35-43.57-49.18q-7.37-6.43-15.21-12.13a16.81,16.81,0,0,0-.48-9.27,19.66,19.66,0,0,0-7.65-9.78c-7-4.73-16.84-4.56-24.07-.29a1.91,1.91,0,0,0-1,1.23A70.09,70.09,0,0,0,164.38,11a1.92,1.92,0,0,0-.92-1.16c-7.23-4.27-17.09-4.44-24.07.29a19.66,19.66,0,0,0-7.65,9.78,16.37,16.37,0,0,0,.59,12.3c0,.05.06.1.08.15A108.48,108.48,0,0,0,271.24,199a209.55,209.55,0,0,0,34.61-32.13c13.15,22.23,28.94,55.31,28.94,55.31,19.06-18.51,32.73-65.87,32.4-66.63Q366.08,153,365,150.53Z"/><circle class="cls-2" cx="201.2" cy="70.56" r="70.56"/><ellipse class="cls-1" cx="163.9" cy="77.31" rx="18.08" ry="15.9" transform="translate(-5.5 141.7) rotate(-46.06)"/><circle class="cls-2" cx="172.8" cy="73" r="2.42"/><ellipse class="cls-1" cx="235.32" cy="77.31" rx="15.9" ry="18.08" transform="translate(12.22 184.92) rotate(-43.94)"/><circle class="cls-2" cx="226.42" cy="73" r="2.42"/></g></g></svg>