<svg xmlns="http://www.w3.org/2000/svg" width="21" height="3" viewBox="0 0 21 3">
  <path id="패스_2531" data-name="패스 2531" d="M315,610.5a1.457,1.457,0,0,1,.586.117,1.643,1.643,0,0,1,.8.8,1.526,1.526,0,0,1,0,1.172,1.541,1.541,0,0,1-.328.48,1.5,1.5,0,0,1-.469.317,1.526,1.526,0,0,1-1.172,0,1.435,1.435,0,0,1-.8-.8,1.526,1.526,0,0,1,0-1.172,1.5,1.5,0,0,1,.317-.469,1.541,1.541,0,0,1,.48-.328A1.457,1.457,0,0,1,315,610.5Zm9,0a1.457,1.457,0,0,1,.586.117,1.643,1.643,0,0,1,.8.8,1.526,1.526,0,0,1,0,1.172,1.541,1.541,0,0,1-.328.48,1.5,1.5,0,0,1-.469.317,1.526,1.526,0,0,1-1.172,0,1.435,1.435,0,0,1-.8-.8,1.526,1.526,0,0,1,0-1.172,1.5,1.5,0,0,1,.317-.469,1.541,1.541,0,0,1,.48-.328A1.457,1.457,0,0,1,324,610.5Zm9,0a1.457,1.457,0,0,1,.586.117,1.643,1.643,0,0,1,.8.8,1.526,1.526,0,0,1,0,1.172,1.541,1.541,0,0,1-.328.48,1.5,1.5,0,0,1-.469.317,1.526,1.526,0,0,1-1.172,0,1.435,1.435,0,0,1-.8-.8,1.526,1.526,0,0,1,0-1.172,1.5,1.5,0,0,1,.317-.469,1.541,1.541,0,0,1,.48-.328A1.457,1.457,0,0,1,333,610.5Z" transform="translate(-313.5 -610.5)" fill="#707070"/>
</svg>
