<svg xmlns="http://www.w3.org/2000/svg" width="24" height="22.125" viewBox="0 0 24 22.125">
  <g id="그룹_370" data-name="그룹 370" transform="translate(-288 -253)">
    <path id="패스_90" data-name="패스 90" d="M296.469,269.125a.469.469,0,1,0,.469.469A.469.469,0,0,0,296.469,269.125Z" fill="#707070"/>
    <g id="그룹_231" data-name="그룹 231">
      <path id="패스_91" data-name="패스 91" d="M288,259.093v.938a2.333,2.333,0,0,0,1.219,2v12.627a.469.469,0,0,0,.469.469h20.624a.469.469,0,0,0,.469-.469V262.029a2.358,2.358,0,0,0,1.219-2v-.937c0-.144-.019-.178-.5-1.04-.407-.724-1.142-2.033-2.471-4.484a.865.865,0,0,0-.335-.351,1.682,1.682,0,0,0-.191-.094,2.889,2.889,0,0,0-.531-.125H292.031a2.889,2.889,0,0,0-.531.125,1.715,1.715,0,0,0-.193.1.859.859,0,0,0-.332.344c-.461.842-2.134,3.889-2.49,4.524C288.01,258.933,288,258.951,288,259.093Zm19.838-.468h2.9l-2.579-4.687h-1.885Zm-.807.937h-2.812v.469a1.406,1.406,0,1,0,2.812,0Zm-3.665-5.624.781,4.687h3.691l-1.563-4.687Zm-.085,6.093v-.469h-2.812v.469a1.406,1.406,0,1,0,2.812,0Zm-2.812-6.093v4.687h3.678l-.781-4.687Zm-2.884,0-1.732,4.687h4.616v-4.687Zm1.946,6.093v-.469h-2.812v.469a1.406,1.406,0,1,0,2.812,0Zm-4.818-6.093-1.563,4.687h2.7l1.732-4.687Zm1.068,6.093v-.469h-2.812v.469a1.406,1.406,0,1,0,2.812,0Zm-1.068-6.093H291.84l-2.578,4.687h3.888Zm-5.775,5.624v.469a1.457,1.457,0,0,0,.934,1.278,1.574,1.574,0,0,0,.612.129,1.541,1.541,0,0,0,1.547-1.407v-.469Zm4.031,14.626h4.687v-9L293,265.125Zm5.625,0h11.25V262.352a2.409,2.409,0,0,1-.328.023,2.588,2.588,0,0,1-1.993-.971,2.341,2.341,0,0,1-3.773.032,2.342,2.342,0,0,1-3.75,0,2.342,2.342,0,0,1-3.75,0,2.341,2.341,0,0,1-3.773-.032,2.588,2.588,0,0,1-1.993.971,2.4,2.4,0,0,1-.328-.023v11.836h1.875v-9.469a.469.469,0,0,1,.469-.469h5.625a.469.469,0,0,1,.469.469Zm11.5-12.864a1.458,1.458,0,0,0,.969-1.293v-.469h-3.093v.469a1.541,1.541,0,0,0,1.547,1.407A1.565,1.565,0,0,0,310.093,261.324Z" fill="#707070" fill-rule="evenodd"/>
    </g>
    <path id="패스_92" data-name="패스 92" d="M308.438,269.219h-.469v-4.5a.469.469,0,0,0-.469-.469h-5.625a.469.469,0,0,0-.469.469v4.5h-.468a.469.469,0,1,0,0,.937h7.5a.469.469,0,0,0,0-.937Zm-1.407,0h-4.687v-4.031h4.687Z" fill="#707070"/>
  </g>
</svg>
