<svg xmlns="http://www.w3.org/2000/svg" viewBox="0 0 335.36 51.29"><defs><style>.cls-1{fill:#dc2525;}</style></defs><g id="레이어_2" data-name="레이어 2"><g id="레이어_1-2" data-name="레이어 1"><path class="cls-1" d="M17.84.07q6,0,9.32,3a10.79,10.79,0,0,1,3.33,8.41c0,3.59-1.11,6.4-3.33,8.41s-5.33,3-9.32,3H12.66c-4,0-7.11-1-9.33-3S0,15.1,0,11.51A10.79,10.79,0,0,1,3.33,3.1q3.33-3,9.33-3V0h5.18ZM14,41.87v2H47.79v7.4H1.35V34.46H34.53v-2H1.35V25H47.12V41.87ZM16.29,13.8A2.28,2.28,0,0,0,18,13.16a2.42,2.42,0,0,0,.61-1.72A2.4,2.4,0,0,0,18,9.69a2.38,2.38,0,0,0-1.75-.6H14.2a2.39,2.39,0,0,0-1.71.6,2.3,2.3,0,0,0-.64,1.75,2.32,2.32,0,0,0,.64,1.72,2.29,2.29,0,0,0,1.71.64ZM47.12,7.2h5.05v8.55H47.12v7.41H34.53V.13H47.12Z"/><path class="cls-1" d="M68.19,29.69v9.49h9.29V49.27H56.21V19.59h8.41V10.84H56.21V.67H76.47v29ZM94,.13h12V51.29H94V30.43H92V50.62H80V.13H92v20.2H94Z"/><path class="cls-1" d="M138.33,19.45a28.28,28.28,0,0,1-9.26,8A30.42,30.42,0,0,1,116.79,31l-2.69-9.42a17.33,17.33,0,0,0,9.08-3.17,19.66,19.66,0,0,0,6.3-7.57A26.19,26.19,0,0,0,132,.13h12.65a26.2,26.2,0,0,0,2.53,10.74,19.72,19.72,0,0,0,6.29,7.57,17.33,17.33,0,0,0,9.09,3.17L159.87,31a30.47,30.47,0,0,1-12.29-3.57A28.25,28.25,0,0,1,138.33,19.45ZM114.1,49.27V39.18h48.46V49.27Z"/><path class="cls-1" d="M170.64.67h28.74v10.1a54.07,54.07,0,0,1-3.53,20.36A30.47,30.47,0,0,1,186,44.56a24,24,0,0,1-14.64,4.71L170,39.18a13.27,13.27,0,0,0,7.43-2.56,18.54,18.54,0,0,0,6.3-8.21H171.31V18.31h14.95a53.62,53.62,0,0,0,.47-7.54H170.64Zm47.12,18.92h5.05v10.1h-5.05v21.6H205.1V.13h12.66Z"/><path class="cls-1" d="M226.85,10.84V.67h30.56V10.84Zm0,10.77h2.22l-.34-8.28h11.71l.34,8.28h2.69l.34-8.28h11.71l-.33,8.28h2.22v10.1H226.85Zm14,13.12v6.4H274.1v10.1l-45.91.06V34.73ZM274.1,12.18h5v10.1h-5V34.73H261.45V.13H274.1Z"/><path class="cls-1" d="M311.8.81V10.9h-16V39.18h17.3V49.27H283.19V.81Zm18.51,18.78h5.05v10.1h-5.05v21.6H317.65V.13h12.66Z"/></g></g></svg>